<mxfile host="app.diagrams.net" modified="2021-03-12T13:32:36.817Z" agent="5.0 (Windows NT 10.0; Win64; x64) AppleWebKit/537.36 (KHTML, like Gecko) Chrome/89.0.4389.82 Safari/537.36" etag="7W0dIiSbVuFbkIbpWPMP" version="14.4.7" type="github">
  <diagram id="dGmtlzjg8HPI6BgFPEHT" name="Page-1">
    <mxGraphModel dx="1422" dy="762" grid="1" gridSize="10" guides="1" tooltips="1" connect="1" arrows="1" fold="1" page="1" pageScale="1" pageWidth="827" pageHeight="1169" math="0" shadow="0">
      <root>
        <mxCell id="0" />
        <mxCell id="1" parent="0" />
        <mxCell id="g3WyhR_3Uv-kH2sVgMF9-1" value="" style="shape=image;html=1;verticalAlign=top;verticalLabelPosition=bottom;labelBackgroundColor=#ffffff;imageAspect=0;aspect=fixed;image=https://cdn2.iconfinder.com/data/icons/us-election-2020/60/131-candidate-meeting-desk-128.png" vertex="1" parent="1">
          <mxGeometry x="260" y="170" width="128" height="128" as="geometry" />
        </mxCell>
      </root>
    </mxGraphModel>
  </diagram>
</mxfile>
